ffmpeg started on 2025-06-05 at 19:18:16
Report written to "D:\Convert\FFMetrics\reports\psnr_report-6.txt"
Log level: 32
Command line:
ffmpeg -hide_banner -nostdin -i "G:\\\xc0\xed\xe8\xec\xe5\\\xce\xed\xe3\xee\xe8\xed\xe3\xe8\\!_36_\xce\xf1\xe5\xed\xfc_2024\\DreamCast\\\xca\xee\xec\xef\xe0\xed\xe8\xff \xab\xcc\xe0\xe3\xe8-\xcb\xfe\xec\xfc\xe5\xf0\xbb\\[DC] Kabushikigaisha Magilumiere - 09_Telegram_HEVC.mkv" -i "G:\\\xc0\xed\xe8\xec\xe5\\\xce\xed\xe3\xee\xe8\xed\xe3\xe8\\!_36_\xce\xf1\xe5\xed\xfc_2024\\DreamCast\\\xca\xee\xec\xef\xe0\xed\xe8\xff \xab\xcc\xe0\xe3\xe8-\xcb\xfe\xec\xfc\xe5\xf0\xbb\\[DC] Kabushikigaisha Magilumiere - 09_Telegram.mp4" -lavfi "[0:v]settb=AVTB,setpts=PTS-STARTPTS,format=pix_fmts=yuv420p10,fps=24000/1001,scale=1920:1080:flags=bicubic[main];[1:v]settb=AVTB,setpts=PTS-STARTPTS,format=pix_fmts=yuv420p,fps=24000/1001,scale=1920:1080:flags=bicubic[ref];[main][ref]psnr=eof_action=endall:stats_file='D\\:/Convert/FFMetrics/logs/psnr_logfile-6.txt'" -f null -
Input #0, matroska,webm, from 'G:\Аниме\Онгоинги\!_36_Осень_2024\DreamCast\Компания «Маги-Люмьер»\[DC] Kabushikigaisha Magilumiere - 09_Telegram_HEVC.mkv':
  Metadata:
    COMPATIBLE_BRANDS: isomiso2avc1mp41
    MAJOR_BRAND     : isom
    MINOR_VERSION   : 512
    ENCODER         : Lavf61.7.100
  Duration: 00:24:06.57, start: -0.021000, bitrate: 1268 kb/s
  Stream #0:0: Video: hevc (Main 10), yuv420p10le(tv, bt709, progressive), 1920x1080 [SAR 1:1 DAR 16:9], 23.98 fps, 23.98 tbr, 1k tbn (default)
      Metadata:
        HANDLER_NAME    : VideoHandler
        VENDOR_ID       : [0][0][0][0]
        ENCODER         : Lavc61.19.100 libx265
        BPS             : 1070040
        DURATION        : 00:24:06.444708333
        NUMBER_OF_FRAMES: 34680
        NUMBER_OF_BYTES : 193469188
        _STATISTICS_WRITING_APP: mkvpropedit v66.0.0 ('Josie') 64-bit
        _STATISTICS_WRITING_DATE_UTC: 2025-05-30 18:49:00
        _STATISTICS_TAGS: BPS DURATION NUMBER_OF_FRAMES NUMBER_OF_BYTES
  Stream #0:1: Audio: aac (LC), 48000 Hz, stereo, fltp (default)
      Metadata:
        HANDLER_NAME    : SoundHandler
        VENDOR_ID       : [0][0][0][0]
        ENCODER         : Lavc61.19.100 aac
        BPS             : 194313
        DURATION        : 00:24:06.570000000
        NUMBER_OF_FRAMES: 67809
        NUMBER_OF_BYTES : 35135926
        _STATISTICS_WRITING_APP: mkvpropedit v66.0.0 ('Josie') 64-bit
        _STATISTICS_WRITING_DATE_UTC: 2025-05-30 18:49:00
        _STATISTICS_TAGS: BPS DURATION NUMBER_OF_FRAMES NUMBER_OF_BYTES
Input #1, mov,mp4,m4a,3gp,3g2,mj2, from 'G:\Аниме\Онгоинги\!_36_Осень_2024\DreamCast\Компания «Маги-Люмьер»\[DC] Kabushikigaisha Magilumiere - 09_Telegram.mp4':
  Metadata:
    major_brand     : isom
    minor_version   : 512
    compatible_brands: isomiso2avc1mp41
    encoder         : Lavf61.1.100
  Duration: 00:24:06.51, start: 0.000000, bitrate: 3330 kb/s
  Stream #1:0[0x1](und): Video: h264 (High) (avc1 / 0x31637661), yuv420p(tv, bt709, progressive), 1920x1080 [SAR 1:1 DAR 16:9], 3182 kb/s, 23.98 fps, 23.98 tbr, 24k tbn (default)
      Metadata:
        handler_name    : VideoHandler
        vendor_id       : [0][0][0][0]
        encoder         : Lavc61.3.100 h264_qsv
  Stream #1:1[0x2](und): Audio: aac (HE-AACv2) (mp4a / 0x6134706D), 48000 Hz, stereo, fltp, 144 kb/s (default)
      Metadata:
        handler_name    : SoundHandler
        vendor_id       : [0][0][0][0]
Stream mapping:
  Stream #0:0 (hevc) -> settb:default
  Stream #1:0 (h264) -> settb:default
  psnr:default -> Stream #0:0 (wrapped_avframe)
  Stream #0:1 -> #0:1 (aac (native) -> pcm_s16le (native))
Output #0, null, to 'pipe:':
  Metadata:
    COMPATIBLE_BRANDS: isomiso2avc1mp41
    MAJOR_BRAND     : isom
    MINOR_VERSION   : 512
    encoder         : Lavf61.7.100
  Stream #0:0: Video: wrapped_avframe, yuv420p10le(tv, bt709, progressive), 1920x1080 [SAR 1:1 DAR 16:9], q=2-31, 200 kb/s, 23.98 fps, 23.98 tbn
      Metadata:
        encoder         : Lavc61.19.100 wrapped_avframe
  Stream #0:1: Audio: pcm_s16le, 48000 Hz, stereo, s16, 1536 kb/s (default)
      Metadata:
        HANDLER_NAME    : SoundHandler
        VENDOR_ID       : [0][0][0][0]
        _STATISTICS_TAGS: BPS DURATION NUMBER_OF_FRAMES NUMBER_OF_BYTES
        BPS             : 194313
        DURATION        : 00:24:06.570000000
        NUMBER_OF_FRAMES: 67809
        NUMBER_OF_BYTES : 35135926
        _STATISTICS_WRITING_APP: mkvpropedit v66.0.0 ('Josie') 64-bit
        _STATISTICS_WRITING_DATE_UTC: 2025-05-30 18:49:00
        encoder         : Lavc61.19.100 pcm_s16le
frame=  168 fps=0.0 q=-0.0 size=N/A time=00:00:07.00 bitrate=N/A speed=13.6x    frame=  404 fps=388 q=-0.0 size=N/A time=00:00:16.85 bitrate=N/A speed=16.2x    frame=  591 fps=383 q=-0.0 size=N/A time=00:00:24.64 bitrate=N/A speed=  16x    frame=  780 fps=377 q=-0.0 size=N/A time=00:00:32.53 bitrate=N/A speed=15.7x    frame= 1002 fps=387 q=-0.0 size=N/A time=00:00:41.79 bitrate=N/A speed=16.1x    frame= 1161 fps=374 q=-0.0 size=N/A time=00:00:48.42 bitrate=N/A speed=15.6x    frame= 1341 fps=372 q=-0.0 size=N/A time=00:00:55.93 bitrate=N/A speed=15.5x    frame= 1482 fps=359 q=-0.0 size=N/A time=00:01:01.81 bitrate=N/A speed=  15x    frame= 1669 fps=360 q=-0.0 size=N/A time=00:01:09.61 bitrate=N/A speed=  15x    frame= 1882 fps=365 q=-0.0 size=N/A time=00:01:18.49 bitrate=N/A speed=15.2x    frame= 2088 fps=368 q=-0.0 size=N/A time=00:01:27.08 bitrate=N/A speed=15.3x    frame= 2298 fps=371 q=-0.0 size=N/A time=00:01:35.84 bitrate=N/A speed=15.5x    frame= 2449 fps=365 q=-0.0 size=N/A time=00:01:42.14 bitrate=N/A speed=15.2x    frame= 2591 fps=359 q=-0.0 size=N/A time=00:01:48.06 bitrate=N/A speed=  15x    frame= 2773 fps=359 q=-0.0 size=N/A time=00:01:55.65 bitrate=N/A speed=  15x    frame= 2982 fps=361 q=-0.0 size=N/A time=00:02:04.37 bitrate=N/A speed=15.1x    frame= 3161 fps=360 q=-0.0 size=N/A time=00:02:11.84 bitrate=N/A speed=  15x    frame= 3364 fps=362 q=-0.0 size=N/A time=00:02:20.30 bitrate=N/A speed=15.1x    frame= 3588 fps=366 q=-0.0 size=N/A time=00:02:29.64 bitrate=N/A speed=15.3x    frame= 3805 fps=369 q=-0.0 size=N/A time=00:02:38.70 bitrate=N/A speed=15.4x    frame= 4027 fps=372 q=-0.0 size=N/A time=00:02:47.95 bitrate=N/A speed=15.5x    frame= 4279 fps=377 q=-0.0 size=N/A time=00:02:58.46 bitrate=N/A speed=15.7x    frame= 4548 fps=384 q=-0.0 size=N/A time=00:03:09.68 bitrate=N/A speed=  16x    frame= 4818 fps=389 q=-0.0 size=N/A time=00:03:20.95 bitrate=N/A speed=16.2x    frame= 5088 fps=394 q=-0.0 size=N/A time=00:03:32.21 bitrate=N/A speed=16.4x    frame= 5338 fps=398 q=-0.0 size=N/A time=00:03:42.63 bitrate=N/A speed=16.6x    frame= 5530 fps=397 q=-0.0 size=N/A time=00:03:50.64 bitrate=N/A speed=16.6x    frame= 5778 fps=400 q=-0.0 size=N/A time=00:04:00.99 bitrate=N/A speed=16.7x    frame= 6039 fps=404 q=-0.0 size=N/A time=00:04:11.87 bitrate=N/A speed=16.8x    frame= 6242 fps=404 q=-0.0 size=N/A time=00:04:20.34 bitrate=N/A speed=16.8x    frame= 6483 fps=405 q=-0.0 size=N/A time=00:04:30.39 bitrate=N/A speed=16.9x    frame= 6700 fps=406 q=-0.0 size=N/A time=00:04:39.44 bitrate=N/A speed=16.9x    frame= 6918 fps=406 q=-0.0 size=N/A time=00:04:48.53 bitrate=N/A speed=  17x    frame= 7144 fps=407 q=-0.0 size=N/A time=00:04:57.96 bitrate=N/A speed=  17x    frame= 7383 fps=409 q=-0.0 size=N/A time=00:05:07.93 bitrate=N/A speed=17.1x    frame= 7556 fps=407 q=-0.0 size=N/A time=00:05:15.14 bitrate=N/A speed=  17x    frame= 7757 fps=407 q=-0.0 size=N/A time=00:05:23.53 bitrate=N/A speed=  17x    frame= 7980 fps=407 q=-0.0 size=N/A time=00:05:32.83 bitrate=N/A speed=  17x    frame= 8217 fps=409 q=-0.0 size=N/A time=00:05:42.71 bitrate=N/A speed=  17x    frame= 8446 fps=409 q=-0.0 size=N/A time=00:05:52.26 bitrate=N/A speed=17.1x    frame= 8660 fps=410 q=-0.0 size=N/A time=00:06:01.19 bitrate=N/A speed=17.1x    frame= 8875 fps=410 q=-0.0 size=N/A time=00:06:10.16 bitrate=N/A speed=17.1x    frame= 9135 fps=412 q=-0.0 size=N/A time=00:06:21.00 bitrate=N/A speed=17.2x    frame= 9396 fps=414 q=-0.0 size=N/A time=00:06:31.89 bitrate=N/A speed=17.3x    frame= 9669 fps=416 q=-0.0 size=N/A time=00:06:43.27 bitrate=N/A speed=17.4x    frame= 9919 fps=418 q=-0.0 size=N/A time=00:06:53.70 bitrate=N/A speed=17.4x    frame=10162 fps=419 q=-0.0 size=N/A time=00:07:03.84 bitrate=N/A speed=17.5x    frame=10419 fps=421 q=-0.0 size=N/A time=00:07:14.55 bitrate=N/A speed=17.5x    frame=10670 fps=422 q=-0.0 size=N/A time=00:07:25.02 bitrate=N/A speed=17.6x    frame=10895 fps=422 q=-0.0 size=N/A time=00:07:34.41 bitrate=N/A speed=17.6x    frame=11136 fps=423 q=-0.0 size=N/A time=00:07:44.46 bitrate=N/A speed=17.6x    frame=11389 fps=425 q=-0.0 size=N/A time=00:07:55.01 bitrate=N/A speed=17.7x    frame=11654 fps=426 q=-0.0 size=N/A time=00:08:06.06 bitrate=N/A speed=17.8x    frame=11890 fps=427 q=-0.0 size=N/A time=00:08:15.91 bitrate=N/A speed=17.8x    frame=12176 fps=429 q=-0.0 size=N/A time=00:08:27.84 bitrate=N/A speed=17.9x    frame=12388 fps=429 q=-0.0 size=N/A time=00:08:36.68 bitrate=N/A speed=17.9x    frame=12656 fps=430 q=-0.0 size=N/A time=00:08:47.86 bitrate=N/A speed=17.9x    frame=12911 fps=432 q=-0.0 size=N/A time=00:08:58.49 bitrate=N/A speed=  18x    frame=13161 fps=432 q=-0.0 size=N/A time=00:09:08.92 bitrate=N/A speed=  18x    frame=13410 fps=433 q=-0.0 size=N/A time=00:09:19.30 bitrate=N/A speed=18.1x    frame=13670 fps=434 q=-0.0 size=N/A time=00:09:30.15 bitrate=N/A speed=18.1x    frame=13934 fps=436 q=-0.0 size=N/A time=00:09:41.16 bitrate=N/A speed=18.2x    frame=14171 fps=436 q=-0.0 size=N/A time=00:09:51.04 bitrate=N/A speed=18.2x    frame=14416 fps=436 q=-0.0 size=N/A time=00:10:01.26 bitrate=N/A speed=18.2x    frame=14666 fps=437 q=-0.0 size=N/A time=00:10:11.69 bitrate=N/A speed=18.2x    frame=14925 fps=438 q=-0.0 size=N/A time=00:10:22.49 bitrate=N/A speed=18.3x    frame=15174 fps=439 q=-0.0 size=N/A time=00:10:32.88 bitrate=N/A speed=18.3x    frame=15433 fps=440 q=-0.0 size=N/A time=00:10:43.68 bitrate=N/A speed=18.3x    frame=15637 fps=439 q=-0.0 size=N/A time=00:10:52.19 bitrate=N/A speed=18.3x    frame=15886 fps=440 q=-0.0 size=N/A time=00:11:02.57 bitrate=N/A speed=18.3x    frame=16140 fps=441 q=-0.0 size=N/A time=00:11:13.17 bitrate=N/A speed=18.4x    frame=16324 fps=439 q=-0.0 size=N/A time=00:11:20.84 bitrate=N/A speed=18.3x    frame=16542 fps=439 q=-0.0 size=N/A time=00:11:29.93 bitrate=N/A speed=18.3x    frame=16806 fps=440 q=-0.0 size=N/A time=00:11:40.95 bitrate=N/A speed=18.4x    frame=17052 fps=441 q=-0.0 size=N/A time=00:11:51.21 bitrate=N/A speed=18.4x    frame=17266 fps=440 q=-0.0 size=N/A time=00:12:00.13 bitrate=N/A speed=18.4x    frame=17500 fps=440 q=-0.0 size=N/A time=00:12:09.89 bitrate=N/A speed=18.4x    frame=17731 fps=441 q=-0.0 size=N/A time=00:12:19.53 bitrate=N/A speed=18.4x    frame=17970 fps=441 q=-0.0 size=N/A time=00:12:29.49 bitrate=N/A speed=18.4x    frame=18228 fps=442 q=-0.0 size=N/A time=00:12:40.25 bitrate=N/A speed=18.4x    frame=18472 fps=442 q=-0.0 size=N/A time=00:12:50.43 bitrate=N/A speed=18.4x    frame=18708 fps=442 q=-0.0 size=N/A time=00:13:00.27 bitrate=N/A speed=18.4x    frame=18895 fps=441 q=-0.0 size=N/A time=00:13:08.07 bitrate=N/A speed=18.4x    frame=19051 fps=440 q=-0.0 size=N/A time=00:13:14.58 bitrate=N/A speed=18.3x    frame=19221 fps=438 q=-0.0 size=N/A time=00:13:21.67 bitrate=N/A speed=18.3x    frame=19441 fps=438 q=-0.0 size=N/A time=00:13:30.85 bitrate=N/A speed=18.3x    frame=19697 fps=439 q=-0.0 size=N/A time=00:13:41.52 bitrate=N/A speed=18.3x    frame=19966 fps=440 q=-0.0 size=N/A time=00:13:52.74 bitrate=N/A speed=18.3x    frame=20250 fps=441 q=-0.0 size=N/A time=00:14:04.59 bitrate=N/A speed=18.4x    frame=20514 fps=442 q=-0.0 size=N/A time=00:14:15.60 bitrate=N/A speed=18.4x    frame=20792 fps=443 q=-0.0 size=N/A time=00:14:27.19 bitrate=N/A speed=18.5x    frame=21021 fps=443 q=-0.0 size=N/A time=00:14:36.75 bitrate=N/A speed=18.5x    frame=21271 fps=443 q=-0.0 size=N/A time=00:14:47.17 bitrate=N/A speed=18.5x    frame=21535 fps=444 q=-0.0 size=N/A time=00:14:58.18 bitrate=N/A speed=18.5x    frame=21793 fps=445 q=-0.0 size=N/A time=00:15:08.94 bitrate=N/A speed=18.6x    frame=22056 fps=445 q=-0.0 size=N/A time=00:15:19.91 bitrate=N/A speed=18.6x    frame=22309 fps=446 q=-0.0 size=N/A time=00:15:30.47 bitrate=N/A speed=18.6x    frame=22534 fps=446 q=-0.0 size=N/A time=00:15:39.85 bitrate=N/A speed=18.6x    frame=22784 fps=446 q=-0.0 size=N/A time=00:15:50.28 bitrate=N/A speed=18.6x    frame=23055 fps=447 q=-0.0 size=N/A time=00:16:01.58 bitrate=N/A speed=18.6x    frame=23295 fps=447 q=-0.0 size=N/A time=00:16:11.59 bitrate=N/A speed=18.6x    frame=23533 fps=447 q=-0.0 size=N/A time=00:16:21.52 bitrate=N/A speed=18.7x    frame=23798 fps=448 q=-0.0 size=N/A time=00:16:32.57 bitrate=N/A speed=18.7x    frame=24028 fps=448 q=-0.0 size=N/A time=00:16:42.16 bitrate=N/A speed=18.7x    frame=24262 fps=448 q=-0.0 size=N/A time=00:16:51.92 bitrate=N/A speed=18.7x    frame=24503 fps=448 q=-0.0 size=N/A time=00:17:01.97 bitrate=N/A speed=18.7x    frame=24738 fps=448 q=-0.0 size=N/A time=00:17:11.78 bitrate=N/A speed=18.7x    frame=24976 fps=448 q=-0.0 size=N/A time=00:17:21.70 bitrate=N/A speed=18.7x    frame=25212 fps=448 q=-0.0 size=N/A time=00:17:31.55 bitrate=N/A speed=18.7x    frame=25437 fps=448 q=-0.0 size=N/A time=00:17:40.93 bitrate=N/A speed=18.7x    frame=25675 fps=448 q=-0.0 size=N/A time=00:17:50.86 bitrate=N/A speed=18.7x    frame=25929 fps=449 q=-0.0 size=N/A time=00:18:01.45 bitrate=N/A speed=18.7x    frame=26175 fps=449 q=-0.0 size=N/A time=00:18:11.71 bitrate=N/A speed=18.7x    frame=26412 fps=449 q=-0.0 size=N/A time=00:18:21.60 bitrate=N/A speed=18.7x    frame=26664 fps=449 q=-0.0 size=N/A time=00:18:32.11 bitrate=N/A speed=18.7x    frame=26893 fps=449 q=-0.0 size=N/A time=00:18:41.66 bitrate=N/A speed=18.7x    frame=27104 fps=449 q=-0.0 size=N/A time=00:18:50.46 bitrate=N/A speed=18.7x    frame=27328 fps=449 q=-0.0 size=N/A time=00:18:59.80 bitrate=N/A speed=18.7x    frame=27548 fps=449 q=-0.0 size=N/A time=00:19:08.98 bitrate=N/A speed=18.7x    frame=27812 fps=449 q=-0.0 size=N/A time=00:19:19.99 bitrate=N/A speed=18.7x    frame=28074 fps=450 q=-0.0 size=N/A time=00:19:30.91 bitrate=N/A speed=18.8x    frame=28289 fps=450 q=-0.0 size=N/A time=00:19:39.88 bitrate=N/A speed=18.7x    frame=28544 fps=450 q=-0.0 size=N/A time=00:19:50.52 bitrate=N/A speed=18.8x    frame=28789 fps=450 q=-0.0 size=N/A time=00:20:00.74 bitrate=N/A speed=18.8x    frame=29022 fps=450 q=-0.0 size=N/A time=00:20:10.45 bitrate=N/A speed=18.8x    frame=29289 fps=451 q=-0.0 size=N/A time=00:20:21.59 bitrate=N/A speed=18.8x    frame=29479 fps=450 q=-0.0 size=N/A time=00:20:29.51 bitrate=N/A speed=18.8x    frame=29678 fps=449 q=-0.0 size=N/A time=00:20:37.81 bitrate=N/A speed=18.7x    frame=29942 fps=450 q=-0.0 size=N/A time=00:20:48.83 bitrate=N/A speed=18.8x    frame=30200 fps=450 q=-0.0 size=N/A time=00:20:59.59 bitrate=N/A speed=18.8x    frame=30433 fps=450 q=-0.0 size=N/A time=00:21:09.30 bitrate=N/A speed=18.8x    frame=30692 fps=451 q=-0.0 size=N/A time=00:21:20.11 bitrate=N/A speed=18.8x    frame=30940 fps=451 q=-0.0 size=N/A time=00:21:30.45 bitrate=N/A speed=18.8x    frame=31173 fps=451 q=-0.0 size=N/A time=00:21:40.17 bitrate=N/A speed=18.8x    frame=31403 fps=451 q=-0.0 size=N/A time=00:21:49.76 bitrate=N/A speed=18.8x    frame=31605 fps=450 q=-0.0 size=N/A time=00:21:58.19 bitrate=N/A speed=18.8x    frame=31819 fps=450 q=-0.0 size=N/A time=00:22:07.11 bitrate=N/A speed=18.8x    frame=32011 fps=450 q=-0.0 size=N/A time=00:22:15.12 bitrate=N/A speed=18.8x    frame=32197 fps=449 q=-0.0 size=N/A time=00:22:22.88 bitrate=N/A speed=18.7x    frame=32296 fps=447 q=-0.0 size=N/A time=00:22:27.01 bitrate=N/A speed=18.6x    frame=32479 fps=446 q=-0.0 size=N/A time=00:22:34.64 bitrate=N/A speed=18.6x    frame=32680 fps=446 q=-0.0 size=N/A time=00:22:43.02 bitrate=N/A speed=18.6x    frame=32862 fps=445 q=-0.0 size=N/A time=00:22:50.61 bitrate=N/A speed=18.6x    frame=32962 fps=444 q=-0.0 size=N/A time=00:22:54.79 bitrate=N/A speed=18.5x    frame=33082 fps=442 q=-0.0 size=N/A time=00:22:59.79 bitrate=N/A speed=18.4x    frame=33257 fps=441 q=-0.0 size=N/A time=00:23:07.09 bitrate=N/A speed=18.4x    frame=33465 fps=441 q=-0.0 size=N/A time=00:23:15.81 bitrate=N/A speed=18.4x    frame=33689 fps=441 q=-0.0 size=N/A time=00:23:25.11 bitrate=N/A speed=18.4x    frame=33909 fps=441 q=-0.0 size=N/A time=00:23:34.28 bitrate=N/A speed=18.4x    frame=34147 fps=441 q=-0.0 size=N/A time=00:23:44.21 bitrate=N/A speed=18.4x    frame=34398 fps=442 q=-0.0 size=N/A time=00:23:54.68 bitrate=N/A speed=18.4x    frame=34638 fps=442 q=-0.0 size=N/A time=00:24:04.69 bitrate=N/A speed=18.4x    [Parsed_psnr_10 @ 000002a2d2457280] PSNR y:48.219560 u:51.089314 v:50.812620 average:48.953679 min:36.941343 max:inf
[out#0/null @ 000002a2cfb44780] video:14902KiB audio:271236KiB subtitle:0KiB other streams:0KiB global headers:0KiB muxing overhead: unknown
frame=34680 fps=442 q=-0.0 Lsize=N/A time=00:24:06.44 bitrate=N/A speed=18.4x    
